<?xml version="1.0" encoding="UTF-8" standalone="no"?>
<!-- Created with Inkscape (http://www.inkscape.org/) -->

<svg
   version="1.1"
   id="svg1"
   width="260"
   height="60"
   viewBox="0 0 260 60"
   xmlns="http://www.w3.org/2000/svg"
   xmlns:svg="http://www.w3.org/2000/svg">
  <defs
     id="defs1">
    <linearGradient
       x1="0"
       y1="0"
       x2="1"
       y2="0"
       gradientUnits="userSpaceOnUse"
       gradientTransform="matrix(189.73986,0,0,189.73986,1.445153,-91.724783)"
       spreadMethod="pad"
       id="linearGradient8">
      <stop
         style="stop-opacity:1;stop-color:#00afcc"
         offset="0"
         id="stop1" />
      <stop
         style="stop-opacity:1;stop-color:#00afcc"
         offset="0"
         id="stop2" />
      <stop
         style="stop-opacity:1;stop-color:#00afcc"
         offset="0"
         id="stop3" />
      <stop
         style="stop-opacity:1;stop-color:#00aea5"
         offset="0.302383"
         id="stop4" />
      <stop
         style="stop-opacity:1;stop-color:#00aea5"
         offset="0.500552"
         id="stop5" />
      <stop
         style="stop-opacity:1;stop-color:#00aea5"
         offset="0.625075"
         id="stop6" />
      <stop
         style="stop-opacity:1;stop-color:#ecd75a"
         offset="0.994502"
         id="stop7" />
      <stop
         style="stop-opacity:1;stop-color:#ecd75a"
         offset="1"
         id="stop8" />
    </linearGradient>
    <clipPath
       clipPathUnits="userSpaceOnUse"
       id="clipPath8">
      <path
         d="M 0,0 H 195 V 45 H 0 Z"
         id="path8" />
    </clipPath>
    <clipPath
       clipPathUnits="userSpaceOnUse"
       id="clipPath10">
      <path
         d="M 6.285,5.383 H 188.914 V 39.992 H 6.285 Z"
         transform="scale(1.3333333)"
         id="path10" />
    </clipPath>
  </defs>
  <g
     id="g1">
    <g
       id="g9"
       clip-path="url(#clipPath10)">
      <path
         d="m 56.637,-219.961 c -3.481,0.094 -7.356,2.313 -8.172,7.063 l -2.266,13.507 -0.121,0.075 c -27.949,17.511 -44.633,47.558 -44.633,80.375 0,52.312 42.559,94.871 94.871,94.871 17.926,0 35.446,-5.118 50.672,-14.801 l 0.274,-0.172 14.277,22.383 c 1.602,2.508 4.199,3.945 7.129,3.945 1.078,0 2.164,-0.203 3.129,-0.582 3.246,-1.258 6.144,-4.648 5.316,-9.398 l -6.488,-37.375 0.086,-0.114 c 13.203,-16.683 20.473,-37.55 20.473,-58.757 0,-32.817 -16.684,-62.86 -44.629,-80.375 l -0.121,-0.075 -0.028,-0.14 -2.168,-13.367 c -0.824,-4.75 -4.699,-6.969 -8.176,-7.063 -0.062,0 -0.128,0 -0.195,0 -3.324,0 -7.289,2.051 -8.328,6.629 l -0.988,4.508 -0.34,-0.114 c -19.277,-6.429 -40.512,-6.433 -59.793,-0.007 l -0.336,0.113 -0.922,-4.5 c -1.047,-4.609 -4.996,-6.629 -8.32,-6.629 -0.07,0 -0.137,0 -0.203,0 M 30.121,-61.844 30.02,-61.961 55.906,-211.602 c 0.047,-0.234 0.141,-0.773 0.946,-0.796 0.48,-0.04 0.82,0.218 0.937,0.742 l 30.223,133.129 c 0.902,3.968 4.238,6.629 8.304,6.629 4.071,0 7.407,-2.661 8.305,-6.629 l 30.289,-133.129 c 0.137,-0.516 0.485,-0.789 0.977,-0.739 0.297,0.012 0.773,0.094 0.902,0.786 l 32.863,190.171 c 0.012,0.063 0.02,0.129 0.02,0.196 0,0.527 -0.426,0.953 -0.949,0.953 -0.532,0.004 -0.805,-0.438 -0.805,-0.438 l -16.063,-25.171 c -0.699,-1.122 -1.933,-1.84 -3.296,-1.911 -0.02,-0.003 -1.368,-0.074 -2.547,0.727 -14.684,10.215 -31.871,15.613 -49.696,15.613 -25.398,0 -49.527,-11.074 -66.195,-30.375 m 65.262,-18.359 -27.649,-121.363 0.274,-0.098 c 18.254,-6.277 38.359,-6.277 56.617,0 l 0.273,0.098 -0.062,0.281 -27.582,121.074 c -0.113,0.5 -0.43,0.75 -0.938,0.75 -0.507,0 -0.82,-0.25 -0.933,-0.742 m 52.808,-109.059 0.649,0.492 c 21.883,16.473 34.949,42.575 34.949,69.829 0,17.211 -5.004,33.847 -14.469,48.113 l -0.449,0.68 z M 23.316,-70.824 c -9.468,-14.278 -14.472,-30.914 -14.472,-48.117 0,-27.254 13.062,-53.36 34.945,-69.829 l 0.652,-0.492 -20.675,119.114 z m -5.902,81.426 c -1.598,0.66 -3.012,1.593 -4.203,2.777 -1.195,1.176 -2.141,2.586 -2.82,4.195 -0.672,1.61 -1.016,3.367 -1.016,5.223 0,1.898 0.359,3.676 1.059,5.273 0.695,1.598 1.66,2.996 2.871,4.16 1.199,1.157 2.625,2.071 4.242,2.719 1.605,0.649 3.328,0.977 5.121,0.977 h 14.629 v -5.387 h -4.379 c 0.492,-0.578 0.93,-1.215 1.297,-1.894 0.504,-0.93 0.887,-1.934 1.137,-2.977 0.25,-1.035 0.378,-2.113 0.378,-3.195 0,-1.832 -0.351,-3.555 -1.042,-5.118 -0.684,-1.554 -1.633,-2.921 -2.813,-4.07 -1.187,-1.144 -2.582,-2.051 -4.148,-2.703 -1.586,-0.652 -3.356,-0.973 -5.122,-0.973 -1.804,0 -3.601,0.336 -5.191,0.993 m 2.219,19.144 c -0.875,-0.402 -1.637,-0.957 -2.258,-1.641 -0.633,-0.699 -1.133,-1.531 -1.488,-2.476 -0.356,-0.957 -0.535,-2 -0.535,-3.094 0,-1.015 0.187,-1.98 0.554,-2.871 0.364,-0.891 0.875,-1.676 1.512,-2.336 0.652,-0.668 1.398,-1.18 2.285,-1.57 0.856,-0.379 1.813,-0.574 2.832,-0.574 1.051,0 2.024,0.195 2.895,0.578 0.89,0.386 1.636,0.898 2.289,1.566 0.633,0.656 1.136,1.442 1.492,2.34 0.367,0.91 0.547,1.898 0.547,2.934 0,1.089 -0.18,2.128 -0.535,3.089 -0.352,0.946 -0.852,1.77 -1.481,2.454 -0.629,0.687 -1.371,1.21 -2.265,1.609 -0.879,0.387 -1.911,0.582 -2.938,0.582 -1.023,0 -2.043,-0.191 -2.906,-0.59 M 170.699,10.348 c -1.137,0.48 -2.097,1.109 -2.851,1.859 -0.758,0.762 -1.325,1.617 -1.684,2.547 -0.352,0.906 -0.531,1.793 -0.531,2.629 0,1.758 0.359,3.199 1.062,4.289 0.676,1.047 1.52,1.89 2.516,2.512 0.937,0.582 1.969,1.043 3.062,1.367 0.954,0.281 1.84,0.578 2.649,0.883 0.699,0.261 1.394,0.48 1.726,0.957 0.09,0.129 0.364,0.3 0.364,1.015 0,0.395 -0.074,0.715 -0.239,0.992 -0.191,0.325 -0.429,0.586 -0.734,0.809 -0.32,0.234 -0.684,0.414 -1.074,0.531 -0.188,0.059 -0.363,0.078 -0.543,0.11 -0.067,0.023 -0.16,0.039 -0.25,0.05 -0.063,0.008 -0.125,0.016 -0.184,0.02 -0.043,0.004 -0.066,0.016 -0.113,0.016 -0.055,0 -0.102,-0.016 -0.152,-0.016 -0.336,0.004 -0.664,-0.027 -0.985,-0.094 -0.043,-0.012 -0.086,-0.019 -0.129,-0.027 -0.191,-0.047 -0.379,-0.106 -0.562,-0.172 -2.184,-0.719 -3.297,-2.512 -3.297,-2.512 l -4.152,3.578 c 0,0 1.484,2.637 4.66,4.036 1.39,0.503 2.855,0.785 4.387,0.785 1.242,0 2.437,-0.188 3.55,-0.559 1.145,-0.379 2.145,-0.937 2.981,-1.644 0.855,-0.731 1.547,-1.633 2.051,-2.692 0.503,-1.062 0.761,-2.265 0.761,-3.57 0,-1.668 -0.367,-3.027 -1.093,-4.047 -0.68,-0.953 -1.532,-1.719 -2.532,-2.273 -0.925,-0.524 -1.953,-0.93 -3.047,-1.223 -0.937,-0.246 -1.804,-0.524 -2.597,-0.832 -0.68,-0.266 -1.246,-0.606 -1.688,-1.016 -0.101,-0.094 -0.422,-0.386 -0.422,-1.273 0,-0.203 0.047,-0.442 0.137,-0.711 0.078,-0.223 0.227,-0.449 0.426,-0.656 0.219,-0.223 0.531,-0.411 0.91,-0.567 l -0.004,-0.004 c 0,0 0.02,-0.007 0.024,-0.007 0,0 0,0 0.003,-0.004 0.004,0 0.008,0 0.012,0 0.051,-0.024 0.289,-0.102 0.672,-0.172 0.051,-0.012 0.098,-0.016 0.149,-0.024 1.179,-0.191 3.363,-0.152 5.199,2.203 l 4.117,-3.738 c -2.168,-2.785 -4.879,-3.687 -6.629,-3.976 -0.609,-0.079 -1.227,-0.118 -1.832,-0.118 -1.504,0 -2.945,0.246 -4.094,0.739 m -31.933,-0.157 v 25.735 h 17.55 v -5.582 h -11.769 v -4.758 h 10.957 v -5.582 h -10.957 v -4.231 h 11.769 v -5.582 z m -29.477,0 v 5.582 h 7.434 v 20.153 h 5.781 V 15.773 h 7.434 v -5.582 z m -17.801,0 -11.34,25.735 h 6.579 l 2.277,-5.707 h 9.207 l 2.312,5.707 h 6.551 L 96.062,10.191 Z m 2.125,8.782 2.379,5.859 H 91.199 Z M 65.707,10.191 59.25,25.711 52.734,10.191 h -6.871 v 25.735 h 5.785 v -13.75 l 5.645,13.75 h 3.863 l 5.645,-13.75 v 13.75 h 5.781 V 10.191 Z"
         transform="scale(1.3333333)"
         style="fill:url(#linearGradient8);stroke:none"
         opacity="1"
         clip-path="url(#clipPath8)"
         id="path9" />
    </g>
  </g>
</svg>
